<?xml version="1.0" standalone="no"?>
<!DOCTYPE svg PUBLIC "-//W3C//DTD SVG 1.1//EN" "http://www.w3.org/Graphics/SVG/1.1/DTD/svg11.dtd" >
<!--
2013-9-30: Created.
-->
<svg>
<metadata>
Created by iconfont
</metadata>
<defs>

<font id="iconfont" horiz-adv-x="1024" >
  <font-face
    font-family="iconfont"
    font-weight="500"
    font-stretch="normal"
    units-per-em="1024"
    ascent="896"
    descent="-128"
  />
    <missing-glyph />
    
    <glyph glyph-name="x" unicode="x" horiz-adv-x="1001"
d="M281 543q-27 -1 -53 -1h-83q-18 0 -36.5 -6t-32.5 -18.5t-23 -32t-9 -45.5v-76h912v41q0 16 -0.5 30t-0.5 18q0 13 -5 29t-17 29.5t-31.5 22.5t-49.5 9h-133v-97h-438v97zM955 310v-52q0 -23 0.5 -52t0.5 -58t-10.5 -47.5t-26 -30t-33 -16t-31.5 -4.5q-14 -1 -29.5 -0.5
t-29.5 0.5h-32l-45 128h-439l-44 -128h-29h-34q-20 0 -45 1q-25 0 -41 9.5t-25.5 23t-13.5 29.5t-4 30v167h911zM163 247q-12 0 -21 -8.5t-9 -21.5t9 -21.5t21 -8.5q13 0 22 8.5t9 21.5t-9 21.5t-22 8.5zM316 123q-8 -26 -14 -48q-5 -19 -10.5 -37t-7.5 -25t-3 -15t1 -14.5
t9.5 -10.5t21.5 -4h37h67h81h80h64h36q23 0 34 12t2 38q-5 13 -9.5 30.5t-9.5 34.5q-5 19 -11 39h-368zM336 498v228q0 11 2.5 23t10 21.5t20.5 15.5t34 6h188q31 0 51.5 -14.5t20.5 -52.5v-227h-327z" />
    

    
    <glyph glyph-name="back" unicode="&#59031;" d="M363.840919 423.021263C336.938714 398.641139 337.301807 358.513862 364.730379 334.513862L673.951902 63.94503C682.818816 56.186481 696.296418 57.084988 704.05497 65.951902 711.813519 74.818816 710.915012 88.296418 702.048098 96.05497L392.826577 366.623802C384.59578 373.825747 384.502227 384.164713 392.492414 391.40582L702.325747 672.192277C711.056111 680.104171 711.719614 693.595384 703.807723 702.325748 695.895829 711.056111 682.404617 711.719614 673.674253 703.807722L363.840919 423.021263Z"  horiz-adv-x="1024" />

    
    <glyph glyph-name="more" unicode="&#59047;" d="M642.174253 391.40582C650.164439 384.164713 650.070886 373.825747 641.84009 366.623802L332.618569 96.05497C323.751654 88.296418 322.853148 74.818816 330.611697 65.951902 338.370249 57.084988 351.847851 56.186481 360.714765 63.94503L669.936288 334.513862C697.36486 358.513862 697.727953 398.641139 670.825747 423.021263L360.992414 703.807722C352.26205 711.719614 338.770837 711.056111 330.858944 702.325748 322.947053 693.595384 323.610556 680.104171 332.340919 672.192277L642.174253 391.40582Z"  horiz-adv-x="1024" />

    
    <glyph glyph-name="alipay" unicode="&#59112;" d="M937.213401 243.426381c14.376429 43.86402 22.156626 90.716094 22.156626 139.387607 0 246.970858-200.210881 447.183785-447.184809 447.183785-246.971881 0-447.183785-200.212928-447.183785-447.183785 0-246.976998 200.211904-447.186855 447.183785-447.186855 158.394497 0 297.552883 82.35159 376.999306 206.574822-65.655326 31.284517-190.348256 87.747483-271.041066 123.482359C562.934043 197.66208099999994 483.709677 141.10087799999997 372.572484 141.10087799999997c0 0-120.134101 0.781806-158.160159 76.877925-6.575766 13.158694-11.815093 27.238364-11.815093 27.238364s-49.6457 151.968134 159.359474 151.968134c55.745628 0 137.846508-16.723893 221.288942-38.545898 17.974373 35.050284 31.090089 71.2743 38.232766 104.438631L328.72586 463.078033l0 34.397415 149.061944 0 0 45.862537L282.860253 543.337985 282.860253 577.738469l194.926528 0 0 57.332776c0 10.949376 0.754177 34.539654 27.093055 34.539654l76.104305-0.144286 0-91.728144 183.460382 0 0-34.401508L580.983117 543.3369620000001l0-45.862537 149.061944 0c0 0-17.268292-78.469166-64.425312-161.763221C758.551302 308.449303 894.381897 258.779044 937.213401 243.426381zM256.524444 323.35580500000003c-2.742461-2.869351-11.095709-20.026102-11.778254-24.971741-5.421476-39.305191-15.07023-114.601084 117.209492-114.601084 72.327282 0 136.264477 49.078789 183.305863 113.187899-79.218226 32.796964-149.700487 57.400315-183.305863 57.532321C307.337737 354.716047 279.548834 347.440339 256.524444 323.35580500000003z"  horiz-adv-x="1024" />

    
    <glyph glyph-name="search" unicode="&#58884;" d="M461.189 710.958c-197.783 0-358.094-160.31-358.094-358.107 0-197.798 160.311-358.11 358.094-358.11 197.786 0 358.097 160.312 358.097 358.11C819.286 550.648 658.987 710.958 461.189 710.958L461.189 710.958zM665.922 148.12c-54.611-54.622-127.324-84.707-204.732-84.707-77.407 0-150.119 30.085-204.729 84.707-54.609 54.608-84.694 127.322-84.694 204.731 0 77.407 30.071 150.121 84.694 204.743 54.609 54.609 127.321 84.693 204.729 84.693 77.408 0 150.121-30.084 204.732-84.693 54.621-54.623 84.705-127.336 84.705-204.743C750.627 275.442 720.543 202.729 665.922 148.12L665.922 148.12zM892.154-30.215l-81.188 81.201c-12.492 14.571-35.395 14.571-49.967 0-14.571-12.491-14.571-35.396 0-49.978l81.201-81.19c12.479-12.504 35.383-12.504 49.967 0C906.74-67.703 906.74-44.787 892.154-30.215L892.154-30.215zM892.154-30.215"  horiz-adv-x="1024" />

    
    <glyph glyph-name="location1" unicode="&#58881;" d="M512 832C317.92 832 160 674.08 160 480c0-187.36 315.424-520.032 328.832-534.08C494.88-60.44799999999998 503.264-64 512-64c0.224 0 0.48 0 0.704 0 8.992 0 17.472 4.192 23.392 10.944l109.216 125.12C790.432 249.82399999999996 864 387.072 864 480 864 674.08 706.08 832 512 832zM512 320c-88.384 0-160 71.616-160 160s71.616 160 160 160 160-71.616 160-160S600.384 320 512 320z"  horiz-adv-x="1024" />

    
    <glyph glyph-name="tel" unicode="&#58937;" d="M2301.915 403.762c-23.806 25.759-47.492 53.611-76.606 72.012-41.197 26.011-86.648 45.756-131.506 65.405-64.786 28.384-131.759 52.773-202.829 56.486-100.648 5.257-201.565 5.51-289.825 7.593-84.487-6.772-156.376-10.087-227.594-18.855-95.715-11.793-190.651-29.246-280.228-67.113-65.552-27.696-118.673-70.984-155.391-132.588-5.117-8.578-8.281-20.721-6.86-30.405 7.052-47.996 15.498-95.784 24.617-143.422 1.464-7.61 7.54-15.647 13.703-20.861 27.607-23.274 58.422-13.057 88.427-6.337 64.437 14.418 128.568 30.239 193.18 43.838 46.872 9.858 74.217 38.225 77.903 84.79 0.897 11.306 1.16 23.1 4.673 33.674 10.112 30.353 18.532 63.573 51.248 77.705 20.511 8.866 43.473 14.966 65.717 16.361 68.464 4.29 137.294 10.112 205.61 7.052 68.324-3.068 136.422-14.698 204.181-25.315 44.257-6.939 78.069-37.387 73.73-89.036-1.309-15.647-0.235-31.548 0.497-47.316 1.961-41.745 21.636-62.346 61.307-67.985 29.237-4.158 58.359-9.668 87.128-16.379 52.076-12.108 103.768-25.777 155.731-38.355 27.074-6.538 42.626 3.145 48.65 29.901 9.293 41.188 17.295 82.672 27.529 123.608 7.723 30.868 9.781 60.925-12.989 85.541z"  horiz-adv-x="3216" />

    
    <glyph glyph-name="money" unicode="&#58885;" d="M226.654066 668.6873009999999C69.711036 511.744271 69.711036 254.93116699999996 226.654066 97.98813600000005c156.939382-156.938165 413.752485-156.938165 570.695516 0.003649 156.938165 156.939382 156.938165 413.752485 0 570.691867C640.405336 825.626683 383.592232 825.626683 226.654066 668.6873009999999L226.654066 668.6873009999999zM700.647999 381.753474l-190.232244-190.231028-190.231028 190.231028 190.231028 190.231028L700.647999 381.753474 700.647999 381.753474zM700.647999 381.753474"  horiz-adv-x="1024" />

    
    <glyph glyph-name="edit" unicode="&#58969;" d="M831.998-127.997 192-127.997c-96.448 0-192 95.616-192 192L0 704C0 800.384 95.552 896 192 896l447.999 0 0-64L192 832c-64.256 0-128-63.744-128-128l0-639.998c0-64.256 63.744-128 128-128l639.998 0c64.256 0 128 63.744 128 128L959.998 512.001l64 0 0-447.999C1023.997-32.382 928.382-127.997 831.998-127.997zM827.68384 791.04c8.46848 0 16.43008-3.29728 22.42048-9.28768l62.53056-62.53056c12.35968-12.35968 12.35968-32.47616 0-44.83584l-442.30144-442.30144-2.48832-0.81408L310.75328 179.8144l51.45088 157.08672 0.8704 2.6624 442.1888 442.1888C811.25376 787.74272 819.21536 791.04 827.68384 791.04M827.68384 842.24c-21.21728 0-42.43456-8.09472-58.624-24.28416l-443.24352-443.24352-8.6528-8.6528 0.08704-0.08704c-2.29888-3.86048-3.70688-8.31488-3.70688-13.1328l-70.3488-214.784c0-14.24384 11.5456-25.79456 25.79456-25.79456l214.784 70.3488c4.81792 0 9.27232 1.408 13.1328 3.70688l0.03072-0.03072 8.84736 8.84736 443.04896 443.04896c32.37888 32.37888 32.37888 84.86912 0 117.248l-62.53056 62.53056C870.1184 834.14528 848.90112 842.24 827.68384 842.24L827.68384 842.24z"  horiz-adv-x="1024" />

    
    <glyph glyph-name="close" unicode="&#58898;" d="M879.480512 831.979918c-22.23235 0-42.339294-9.080819-56.830333-23.728424l-0.007163 0.007163L511.706311 497.322975 200.77063 808.258657l-0.007163-0.007163c-14.492062 14.647605-34.597983 23.728424-56.830333 23.728424-44.155662 0-79.950913-35.795251-79.950913-79.950913 0-22.23235 9.080819-42.339294 23.728424-56.830333l-0.007163-0.007163 310.935682-310.935682L87.702458 73.319122l0.007163-0.007163c-14.647605-14.492062-23.728424-34.597983-23.728424-56.830333 0-44.155662 35.795251-79.950913 79.950913-79.950913 22.23235 0 42.339294 9.080819 56.830333 23.728424l0.007163-0.007163 310.935682 310.935682 310.935682-310.935682 0.007163 0.007163c14.492062-14.647605 34.597983-23.728424 56.830333-23.728424 44.155662 0 79.950913 35.795251 79.950913 79.950913 0 22.23235-9.080819 42.339294-23.728424 56.830333l0.007163 0.007163L624.77346 384.254803l310.935682 310.935682-0.007163 0.007163c14.647605 14.492062 23.728424 34.597983 23.728424 56.830333C959.431425 796.184667 923.635151 831.979918 879.480512 831.979918z"  horiz-adv-x="1024" />

    
    <glyph glyph-name="me" unicode="&#58886;" d="M248.384 631.8720000000001C248.384 777.728 366.4 896 512 896s263.616-118.272 263.616-264.128S657.6 367.744 512 367.744 248.384 486.016 248.384 631.8720000000001zM972.8-128c-11.456 245.056-213.376 428.736-460.8 428.736S62.656 117.05600000000004 51.2-128L972.8-128z"  horiz-adv-x="1024" />

    
    <glyph glyph-name="wechat" unicode="&#58938;" d="M876.275308 580.841515c6.299427 0 12.505299-0.062371 18.742356-0.405409C862.179559 759.190157 677.562675 896 454.681447 896 208.629553 896 9.199659 729.189914 9.199659 523.429407c0-120.655866 68.545255-227.902059 174.85589-295.979535 1.372153-0.873188 4.085272-2.588379 4.085272-2.588379l-43.035693-134.813985 161.040809 82.017298c0 0 5.052016-1.434523 7.578024-2.18297 44.251919-12.349373 91.684736-18.991838 140.957486-18.991838 10.041662 0 20.052138 0.374223 29.937873 0.904373-9.137288 28.347424-14.158119 58.12937-14.158119 88.878061C470.461201 428.563771 652.209039 580.841515 876.275308 580.841515zM609.734681 712.287489c34.52211 0 62.526495-27.100012 62.526495-60.530637 0-33.430625-27.9732-60.593008-62.526495-60.593008-34.58448 0-62.557681 27.162383-62.557681 60.593008C547.177001 685.218662 575.119016 712.287489 609.734681 712.287489zM299.659398 591.163845c-34.553295 0-62.557681 27.162383-62.557681 60.593008 0 33.46181 27.9732 60.530637 62.557681 60.530637s62.620051-27.100012 62.620051-60.530637C362.279449 618.326227 334.243879 591.163845 299.659398 591.163845zM503.236935 238.489463c0-173.857961 168.556462-314.784261 376.406383-314.784261 41.601169 0 81.67426 5.675722 119.034231 16.122792 2.151785 0.59252 6.424169 1.839932 6.424169 1.839932l135.999025-69.356073-36.362042 113.951029c0 0 2.307711 1.434523 3.430381 2.18297 89.813619 57.505665 147.724692 148.098916 147.724692 250.074796 0 173.79559-168.494092 314.721891-376.281642 314.721891C671.793397 553.211353 503.236935 412.285053 503.236935 238.489463zM957.731271 346.920697c0 28.191497 23.638446 51.112681 52.796687 51.112681 29.251797 0 52.859057-22.889999 52.859057-51.112681 0-28.316238-23.638446-51.268608-52.859057-51.268608C981.369716 295.683274 957.731271 318.604459 957.731271 346.920697zM695.806067 346.920697c0 28.191497 23.700816 51.112681 52.859057 51.112681 29.220612 0 52.859057-22.889999 52.859057-51.112681 0-28.316238-23.669631-51.268608-52.859057-51.268608C719.475697 295.683274 695.806067 318.604459 695.806067 346.920697z"  horiz-adv-x="1256" />

    
    <glyph glyph-name="start" unicode="&#59016;" d="M195.155237-23.392524l43.674709 254.609839c2.556219 14.937201-2.384303 30.160927-13.242606 40.730657L40.605302 452.261687c-27.316136 26.612101-12.235672 73.002664 25.50693 78.474282l255.629052 37.153178c15.007809 2.169409 27.947516 11.590989 34.655288 25.177426L470.718293 824.724677c16.889669 34.181497 65.648163 34.181497 82.509179 0l114.321722-231.658104c6.722098-13.586436 19.677155-23.006993 34.669614-25.177426l255.614725-37.153178c37.773302-5.471618 52.824089-51.862181 25.507954-78.474282l-184.983061-180.314739c-10.828626-10.56973-15.797801-25.793456-13.240559-40.730657l43.688012-254.609839c6.433526-37.569664-33.003672-66.267263-66.784032-48.487318L533.408077 48.331008c-13.413498 7.03523-29.441543 7.03523-42.826388 0l-228.65777-120.211872C228.144582-89.659787 188.706361-60.962188 195.155237-23.392524"  horiz-adv-x="1024" />

    
    <glyph glyph-name="start1" unicode="&#59039;" d="M834.921784-127.905037C826.692639-127.905037 818.432545-125.939201 810.863615-121.960378L535.843027 22.610983 260.822441-121.960378C243.407717-131.13673 222.270425-129.590881 206.35593-118.02871 190.425224-106.457697 182.452502-86.845034 185.778645-67.441626L238.293976 238.780566 15.799035 455.657498C1.703086 469.396235-3.37234 489.949078 2.712572 508.676083 8.797483 527.39572 24.984614 541.040144 44.465466 543.876898L351.951684 588.557635 489.458294 867.1712C498.176707 884.825395 516.15144 896 535.843027 896 555.534619 896 573.507876 884.825395 582.227765 867.1712L719.734373 588.557635 1027.220592 543.876898C1046.701445 541.040144 1062.888576 527.395719 1068.973487 508.676083 1075.058398 489.949078 1069.982971 469.396234 1055.887021 455.657498L833.39061 238.780566 885.905939-67.441626C889.232082-86.845034 881.259361-106.457697 865.328654-118.02871 856.322867-124.571666 845.645905-127.905037 834.921784-127.905037L834.921784-127.905037ZM535.843027 132.766971C544.111964 132.766971 552.379426 130.784929 559.910038 126.822312L766.235534 18.361006 726.837611 248.098385C723.955052 264.875765 729.518274 281.993557 741.711674 293.875508L908.637776 456.582943 677.949057 490.096443C661.101712 492.544158 646.5386 503.127833 639.000616 518.388839L535.841556 727.409801 432.682494 518.388839C425.144513 503.127833 410.581401 492.544158 393.734052 490.096443L163.046808 456.58147 329.972908 293.874038C342.164836 281.992082 347.72953 264.874294 344.846971 248.096914L305.449052 18.359531 511.774545 126.820841C519.306632 130.784929 527.574094 132.766971 535.843027 132.766971L535.843027 132.766971Z"  horiz-adv-x="1072" />

    
    <glyph glyph-name="tuige" unicode="&#58910;" d="M642.116 388.796l69.093 69.093c10.693 10.693 8.527 22.877 8.527 22.877 0 13.13-8.258 19.763-8.258 19.763-9.07 9.07-20.17 9.204-20.17 9.204-14.486 0-23.015-9.204-23.015-9.204l-69.084-68.928-69.084 68.928c0 0-8.527 9.204-23.012 9.204 0 0-11.099-0.134-20.17-9.204 0 0-8.259-6.633-8.259-19.763 0 0-2.164-12.185 8.528-22.877l69.093-69.093-68.324-68.172c-9.477-7.714-9.477-23.011-9.477-23.011 0-11.911 9.34-21.522 9.34-21.522 8.326-8.325 20.036-7.58 20.036-7.58 15.295 0 22.336 8.391 22.336 8.391l68.991 68.993 68.993-68.993c0 0 7.041-8.391 22.336-8.391 0 0 11.709-0.746 20.035 7.58 0 0 9.341 9.612 9.341 21.522 0 0 0 15.297-9.477 23.011l-68.321 68.172L642.116 388.796zM989.365 177.612 989.365 597.939c-4.012 118.326-118.829 121.334-118.829 121.334L331.549 719.273c-15.04 0-23.733-8.524-23.733-8.524L36.484 410.922c-8.899-9.15-8.524-21.059-8.524-21.059 0-16.044 9.278-25.069 9.278-25.069l268.24-297.154c10.361-10.361 22.395-9.193 22.395-9.193l542.665 0c121.837 6.518 118.829 119.164 118.829 119.164L989.365 177.612zM953.467 165.804c0 0-1.767-62.515-62.163-62.515L330.43 103.289 73.301 389.112l259.401 285.824 558.602 0c0 0 62.163-6.36 62.163-65.696l0-443.439L953.467 165.804z"  horiz-adv-x="1024" />

    
    <glyph glyph-name="card" unicode="&#58901;" d="M1457.512311 721.667863V803.116124a92.883876 92.883876 0 0 1-92.883876 92.883876H92.883876A92.883876 92.883876 0 0 1 0 803.116124v-81.448261zM0 610.109611v-645.225735a92.883876 92.883876 0 0 1 92.883876-92.883876h1271.744559a92.883876 92.883876 0 0 1 92.883876 92.883876V610.109611z m884.23498-495.830723a63.440826 63.440826 0 1 0 63.440826 63.440826 63.440826 63.440826 0 0 0-63.440826-63.440826z m183.815727 0a63.440826 63.440826 0 1 0 63.440826 63.440826 63.440826 63.440826 0 0 0-63.424559-63.440826z m183.815727 0a63.440826 63.440826 0 1 0 63.440826 63.440826 63.440826 63.440826 0 0 0-63.392026-63.440826z"  horiz-adv-x="1457" />

    
    <glyph glyph-name="tel1" unicode="&#58887;" d="M31.134296 568.773807c154.249102-544.838893 595.130151-681.556609 663.43821-690.993981 163.53972-28.120207 276.09957 68.195171 306.861338 222.940977 0 0-159.599956 116.612501-241.499636 139.347988L620.089516 117.315224s-70.802866 1.422379-215.467843 166.136126c-144.72142 164.758902-137.022511 235.223107-137.022511 235.223107l120.270048 105.685018C376.411156 740.136611 321.852762 925.452276 189.492493 892.02637 59.130327 860.067997 0.270929 682.947944 31.134296 568.773807z"  horiz-adv-x="1024" />

    
    <glyph glyph-name="yue" unicode="&#58895;" d="M511.7-63.27c-276.955 0-393.1 100.046-393.1 305.649 0 170.33 131.717 348.077 291.391 404.145h203.4c159.696-56.068 291.412-233.816 291.412-404.145C904.798 36.775 788.65-63.27 511.7-63.27z m108.939 337.85v0.066c18.381 0.095 33.247 15.174 33.247 33.748 0 18.599-14.866 33.665-33.247 33.786v0.082h-67.437c0.15 0.75-0.086 1.429 0 2.187l79.018 81.59c12.901 14.661 6.332 26.782-6.696 40.082-13.116 13.373-34.532 16.175-45.13 4.521l-67.95-73.154-73.385 74.133c-9.299 9.376-27.386 6.313-40.374-6.815-13.031-13.158-16.015-31.411-6.76-40.787L467 348.224c-1.41-1.812-2.305-3.82-2.86-5.96h-60.996v-0.066h-0.17c-18.488 0-33.46-15.118-33.46-33.79 0-18.65 14.972-33.793 33.46-33.793 0.042 0 0.107 0.03 0.17 0.03v-0.066h66.885v-33.654h-66.885v-0.094h-0.17c-18.488 0-33.46-15.12-33.46-33.793 0-18.652 14.972-33.792 33.46-33.792 0.042 0 0.107 0.043 0.17 0.043v-0.043h66.885v-34.018h0.682c-0.514-2.634-0.834-5.394-0.834-8.208 0-23.334 18.728-42.239 41.823-42.239 23.097 0 41.823 18.906 41.823 42.24 0 2.812-0.32 5.572-0.832 8.207h0.384v34.018l67.566 0.043c18.381 0.105 33.27 15.172 33.27 33.749 0 18.585-14.889 33.655-33.27 33.775v0.112h-67.566v33.658h67.565v-0.002z m49.988 506.863l-7.036-8.876c-0.17-0.171-0.257-0.358-0.428-0.53l-59.46-75.06H402.97l-59.351 74.93c-0.449 0.428-0.746 0.948-1.132 1.42l-6.439 8.116 1.13 2.288c-0.532 2.08-1.258 4.107-1.258 6.358 0 10.759 6.695 19.845 16.08 23.542l0.768 1.6s82.235 16.613 150.571 16.89c71.486 0.299 150.546-16.89 150.546-16.89l0.811-1.617c9.32-3.732 15.973-12.798 15.973-23.526 0-2.207-0.726-4.172-1.239-6.204l1.196-2.441z m0 0"  horiz-adv-x="1024" />

    
    <glyph glyph-name="location3" unicode="&#58955;" d="M815.445333 336.21333300000003l-295.537777-415.175111-0.398223-0.455111a8.988444 8.988444 0 0 0-7.509333-3.982222 8.988444 8.988444 0 0 0-7.566222 3.982222l-0.170667 0.227556L209.351111 335.075556a331.662222 331.662222 0 0 0-51.029333 176.128C158.264889 698.823111 316.984889 851.456 512 851.456c195.128889 0 353.735111-152.632889 353.735111-340.309333 0-61.781333-17.408-122.311111-50.289778-174.990223M512 896C292.408889 896 113.777778 723.399111 113.777778 511.203556c0-70.542222 20.138667-139.832889 58.197333-200.419556l0.341333-0.512 295.424-414.890667a53.589333 53.589333 0 0 1 88.519112 0l295.822222 415.459556 0.682666 1.137778A374.385778 374.385778 0 0 1 910.222222 511.089778C910.222222 723.342222 731.591111 896 512 896M374.727111 654.392889a200.362667 200.362667 0 0 1 0-279.438222 191.317333 191.317333 0 0 1 190.179556-49.493334 21.333333 21.333333 0 0 1 14.392889 26.339556 20.878222 20.878222 0 0 1-25.884445 14.734222c-53.361778-15.36-110.535111-0.625778-149.048889 38.570667a157.127111 157.127111 0 0 0 0 219.079111 150.528 150.528 0 0 0 215.267556 0 157.127111 157.127111 0 0 0 0-219.022222 21.560889 21.560889 0 0 1 0-30.208 20.707556 20.707556 0 0 1 29.582222 0 200.362667 200.362667 0 0 1 0 279.438222 192 192 0 0 1-274.488889 0"  horiz-adv-x="1024" />

    
    <glyph glyph-name="home" unicode="&#58972;" d="M512 896L0 556.8v-633.6c0-32 19.2-51.2 44.8-51.2h928c25.6 0 44.8 19.2 44.8 44.8v640L512 896z m230.4-793.6H281.6c-32 0-57.6 25.6-57.6 57.6s25.6 57.6 57.6 57.6h454.4c32 0 57.6-25.6 57.6-57.6s-25.6-57.6-51.2-57.6z"  horiz-adv-x="1024" />

    
    <glyph glyph-name="trash" unicode="&#58978;" d="M736 543.968L736.096 96h-0.128L288 96.032 288.032 544l447.968-0.032zM384 672h256v-64H384v64z m448-64H704v85.376C704 713.952 687.232 736 640.16 736H383.84c-47.072 0-63.84-22.048-63.84-42.624V608H192a32 32 0 1 1 0-64h32v-447.968C224 60.704 252.704 32 288.032 32h447.936A64.064 64.064 0 0 1 800 96.032V544h32a32 32 0 1 1 0 64zM608 205.44a32 32 0 0 1 32 32V448a32 32 0 1 1-64 0v-210.56a32 32 0 0 1 32-32m-192 0a32 32 0 0 1 32 32V448a32 32 0 1 1-64 0v-210.56a32 32 0 0 1 32-32"  horiz-adv-x="1024" />

    
    <glyph glyph-name="message" unicode="&#59154;" d="M508.48 832a427.264 427.264 0 0 0 173.632-33.472c54.144-23.04 101.696-54.336 142.592-93.888a439.168 439.168 0 0 0 133.504-313.216c0.64-58.24-9.28-113.024-29.952-164.48a437.248 437.248 0 0 0-86.272-136.576 473.408 473.408 0 0 0-129.92-97.984 449.728 449.728 0 0 0-160.896-47.68c-14.912-2.048-30.848-3.712-47.744-5.12a1174.272 1174.272 0 0 0-125.376-3.008c-25.408 0.64-54.016 2.752-85.824 6.08-70.4 6.784-122.688 15.552-156.864 26.368-34.176 10.816-47.872 16.896-41.152 18.304 35.904 6.08 66.688 15.872 92.416 29.44 13.504 7.424 19.136 18.112 16.704 32a78.4 78.4 0 0 1-19.776 39.104 462.08 462.08 0 0 0-83.776 132.48 440.32 440.32 0 0 0-33.984 162.88 427.072 427.072 0 0 0 33.472 173.632 454.464 454.464 0 0 0 94.4 142.144A447.424 447.424 0 0 0 508.48 832z m197.952-446.72c0-17.6 6.08-32.64 18.304-45.184 12.16-12.544 27.008-18.752 44.672-18.752 17.6 0 32.64 6.272 45.184 18.752a61.504 61.504 0 0 1 18.752 45.184 60.032 60.032 0 0 1-18.752 44.672 62.72 62.72 0 0 1-45.184 18.24 60.8 60.8 0 0 1-44.672-18.24 60.672 60.672 0 0 1-18.304-44.672z m-254.848 0c0-17.6 6.4-32.832 19.328-45.696a62.4 62.4 0 0 1 45.696-19.264 62.144 62.144 0 0 1 46.208 19.264 63.36 63.36 0 0 1 18.688 45.696 63.04 63.04 0 0 1-18.752 46.208 62.848 62.848 0 0 1-46.208 18.752 63.424 63.424 0 0 1-45.696-18.752 62.272 62.272 0 0 1-19.264-46.208z m-251.776 0.96c0-17.6 6.272-32.832 18.752-45.696 12.544-12.8 27.584-19.264 45.184-19.264a62.08 62.08 0 0 1 46.208 19.264 63.232 63.232 0 0 1 18.816 45.696 61.76 61.76 0 0 1-18.752 45.184 62.976 62.976 0 0 1-46.272 18.816 61.76 61.76 0 0 1-45.184-18.752 61.824 61.824 0 0 1-18.752-45.248z"  horiz-adv-x="1024" />

    
    <glyph glyph-name="success" unicode="&#58900;" d="M517.226 867.894c-267.441 0-484.239-216.798-484.239-484.239s216.798-484.239 484.239-484.239c111.052 0 216.415 37.509 301.48 105.282 10.209 8.131 11.883 23.001 3.752 33.191-8.131 10.21-22.982 11.884-33.191 3.753-76.773-61.156-171.804-94.971-272.061-94.971C275.853-53.33000000000004 80.2 142.32399999999996 80.2 383.677S275.853 820.6800000000001 517.206 820.6800000000001c241.352 0 437.006-195.654 437.006-437.005 0-82.745-23.022-162.039-65.797-230.74-6.9-11.057-3.531-25.645 7.546-32.525 11.077-6.9 25.644-3.532 32.545 7.546 47.435 76.126 72.959 164.076 72.959 255.719 0 267.42-216.798 484.218-484.239 484.218z m271.335-347.14l-283.562-292.66c-8.919-9.201-23.526-9.625-32.949-0.95L300.448 384.886c-9.604 8.818-10.23 23.768-1.412 33.372 8.837 9.604 23.768 10.23 33.372 1.412L487.08 277.505l267.563 276.138c9.06 9.362 24.03 9.603 33.393 0.525 9.382-9.08 9.604-24.051 0.524-33.413z"  horiz-adv-x="1024" />

    
    <glyph glyph-name="trash3" unicode="&#59167;" d="M208 704H256V800a32 32 0 0 0 32 32h448a32 32 0 0 0 32-32V704h243.2c7.04 0 12.8-5.76 12.8-12.8v-38.4a12.8 12.8 0 0 0-12.8-12.8H896v-736a32 32 0 0 0-32-32h-704a32 32 0 0 0-32 32V640H12.8a12.8 12.8 0 0 0-12.8 12.8v38.4c0 7.04 5.76 12.8 12.8 12.8h195.2zM704 704v51.2a12.8 12.8 0 0 1-12.8 12.8H332.8a12.8 12.8 0 0 1-12.8-12.8V704h384zM204.8 640a12.8 12.8 0 0 1-12.8-12.8v-678.4c0-7.04 5.76-12.8 12.8-12.8h614.4a12.8 12.8 0 0 1 12.8 12.8V627.2a12.8 12.8 0 0 1-12.8 12.8H204.8z m147.2-128.32a32 32 0 0 0 32-32v-376.32a32 32 0 1 0-64 0v376.32a32 32 0 0 0 32 32z m160 0a32 32 0 0 0 32-32v-376a32 32 0 1 0-64 0V479.68a32 32 0 0 0 32 32z m160 0a32 32 0 0 0 32-32v-376a32 32 0 1 0-64 0V479.68a32 32 0 0 0 32 32z"  horiz-adv-x="1024" />

    
    <glyph glyph-name="location2" unicode="&#58897;" d="M512.103132 575.879021a106.221743 106.221743 0 1 0-75.507022-31.354611A106.221743 106.221743 0 0 0 512.103132 575.879021m0 63.989002a170.850635 170.850635 0 1 1 120.939214-49.911422A169.570855 169.570855 0 0 1 512.103132 639.868023zM805.172761 771.685367a407.609942 407.609942 0 0 1-586.139257 0 431.285873 431.285873 0 0 1 0-599.576948L512.103132-128l293.069629 300.108419a431.285873 431.285873 0 0 1 0 599.576948z m-44.152411-557.344207l-248.917218-255.956007-248.917217 255.956007a365.377201 365.377201 0 0 0 0 508.712565 346.82039 346.82039 0 0 0 497.834435 0 365.377201 365.377201 0 0 0 0-508.712565z"  horiz-adv-x="1024" />

    


  </font>
</defs>
</svg>
